<?xml version="1.0" standalone="no"?>
<!DOCTYPE svg PUBLIC "-//W3C//DTD SVG 20010904//EN"
 "http://www.w3.org/TR/2001/REC-SVG-20010904/DTD/svg10.dtd">
<svg version="1.0" xmlns="http://www.w3.org/2000/svg"
 width="131.000000pt" height="125.000000pt" viewBox="0 0 131.000000 125.000000"
 preserveAspectRatio="xMidYMid meet">

<g transform="translate(0.000000,125.000000) scale(0.100000,-0.100000)"
fill="#000000" stroke="none">
<path d="M170 896 c0 -244 2 -281 20 -337 36 -118 88 -178 244 -282 39 -26 71
-45 73 -44 1 2 -8 32 -20 67 -21 62 -22 84 -25 468 l-3 402 -145 0 -144 0 0
-274z"/>
<path d="M887 1163 c-4 -3 -7 -121 -7 -262 0 -290 -8 -341 -66 -452 -47 -89
-151 -189 -225 -217 l-53 -19 45 -33 c99 -72 136 -85 239 -85 84 0 102 3 151
28 69 33 132 99 167 175 l27 57 7 390 c3 215 4 398 2 408 -5 15 -20 17 -143
17 -76 0 -141 -3 -144 -7z"/>
</g>
</svg>
